<svg width="173" height="46" viewBox="0 0 173 46" fill="none" xmlns="http://www.w3.org/2000/svg">
<path d="M7.474 34.518C6.33933 34.518 5.291 34.3823 4.329 34.111C3.39167 33.8643 2.45433 33.482 1.517 32.964L1.48 28.672H3.959L4.625 32.113C5.513 32.483 6.475 32.668 7.511 32.668C8.769 32.668 9.70633 32.446 10.323 32.002C10.9397 31.558 11.248 30.9413 11.248 30.152C11.248 29.4613 11.0013 28.9063 10.508 28.487C10.0147 28.043 9.176 27.6237 7.992 27.229L6.142 26.6C4.76067 26.156 3.663 25.5023 2.849 24.639C2.05967 23.7757 1.665 22.6903 1.665 21.383C1.665 20.347 1.93633 19.4097 2.479 18.571C3.02167 17.7077 3.811 17.0293 4.847 16.536C5.90767 16.018 7.19033 15.759 8.695 15.759C9.75567 15.759 10.7177 15.8947 11.581 16.166C12.469 16.4127 13.3447 16.7827 14.208 17.276L14.023 21.161H11.581L10.915 18.053C10.2243 17.757 9.45967 17.609 8.621 17.609C7.63433 17.609 6.86967 17.8187 6.327 18.238C5.78433 18.6573 5.513 19.2247 5.513 19.94C5.513 20.606 5.735 21.1487 6.179 21.568C6.64767 21.9627 7.511 22.3697 8.769 22.789L10.249 23.233C12.0497 23.8497 13.3323 24.6143 14.097 25.527C14.8617 26.4397 15.244 27.5373 15.244 28.82C15.244 30.4727 14.5657 31.8417 13.209 32.927C11.877 33.9877 9.96533 34.518 7.474 34.518ZM15.4166 34V32.483L17.9326 32.002C17.9572 31.0647 17.9696 30.078 17.9696 29.042C17.9942 28.006 18.0066 27.0687 18.0066 26.23V10.357L15.3056 9.987V8.544L22.0396 6.879L22.5946 7.212L22.4466 12.429V24.602L28.5886 18.386L25.8136 17.831L25.8506 16.277H34.5826V17.831L31.2156 18.312L27.4786 21.938L33.1766 31.965L35.5816 32.483V34H29.3286L24.3706 24.972L22.4466 26.859C22.4466 27.6977 22.4466 28.5733 22.4466 29.486C22.4712 30.374 22.4959 31.225 22.5206 32.039L24.9996 32.483V34H15.4166ZM46.3214 17.757V16.277H53.4254V17.757L51.3534 18.164L45.0264 34.666C43.9657 37.5027 42.8927 39.5993 41.8074 40.956C40.7221 42.3127 39.3777 42.991 37.7744 42.991C36.8124 42.991 35.9737 42.7443 35.2584 42.251C34.5677 41.7577 34.1977 41.141 34.1484 40.401C34.2964 39.735 34.6294 39.2293 35.1474 38.884C35.6901 38.5633 36.2821 38.403 36.9234 38.403C37.4167 38.403 37.8977 38.5017 38.3664 38.699C38.8597 38.921 39.3531 39.3403 39.8464 39.957L40.0684 40.253C40.7344 39.6117 41.3141 38.8717 41.8074 38.033C42.3007 37.219 42.7077 36.3433 43.0284 35.406L43.1024 35.184L36.0724 18.053L34.1854 17.757V16.277H43.8794V17.757L40.9564 18.164L45.1004 29.486L49.1334 18.201L46.3214 17.757ZM60.8451 34.629C59.4637 34.629 58.0947 34.4563 56.7381 34.111C55.3814 33.7657 54.2221 33.2847 53.2601 32.668L53.4821 27.34H56.3311L57.0711 31.817C57.6384 32.0637 58.2181 32.261 58.8101 32.409C59.4021 32.5323 60.0681 32.594 60.8081 32.594C62.3374 32.594 63.5337 32.2363 64.3971 31.521C65.2851 30.781 65.7291 29.8067 65.7291 28.598C65.7291 27.5127 65.4207 26.6617 64.8041 26.045C64.1874 25.4283 63.2007 24.8487 61.8441 24.306L60.3271 23.677C58.3044 22.8137 56.6887 21.7777 55.4801 20.569C54.2961 19.3603 53.7041 17.7817 53.7041 15.833C53.7041 14.3777 54.0741 13.132 54.8141 12.096C55.5541 11.0353 56.5777 10.2337 57.8851 9.691C59.2171 9.12367 60.7464 8.84 62.4731 8.84C63.7557 8.84 64.9521 9.01267 66.0621 9.358C67.1721 9.70333 68.1464 10.172 68.9851 10.764L68.7261 15.759H65.9141L65.1741 11.467C64.3107 11.0723 63.3857 10.875 62.3991 10.875C61.1657 10.875 60.1174 11.208 59.2541 11.874C58.3907 12.5153 57.9591 13.4403 57.9591 14.649C57.9591 15.7097 58.2921 16.573 58.9581 17.239C59.6241 17.905 60.5614 18.4847 61.7701 18.978L63.3611 19.644C65.7784 20.6553 67.4927 21.7407 68.5041 22.9C69.5401 24.0593 70.0581 25.5517 70.0581 27.377C70.0581 29.5477 69.2317 31.299 67.5791 32.631C65.9511 33.963 63.7064 34.629 60.8451 34.629ZM77.3323 34.518C75.8523 34.518 74.693 34.148 73.8543 33.408C73.0156 32.668 72.5963 31.484 72.5963 29.856C72.5963 29.2887 72.5963 28.7583 72.5963 28.265C72.621 27.747 72.6333 27.1303 72.6333 26.415V18.534H69.8953V16.61L72.8923 16.24L74.2983 11.171H77.2953L77.1473 16.277H81.5873V18.534H77.1103V29.449C77.1103 30.3617 77.283 31.0277 77.6283 31.447C77.9983 31.8663 78.4793 32.076 79.0713 32.076C79.7373 32.076 80.4896 31.7677 81.3283 31.151L82.2163 32.076C81.7476 32.8407 81.1063 33.445 80.2923 33.889C79.4783 34.3083 78.4916 34.518 77.3323 34.518ZM95.2001 34.333L94.9041 31.077C93.1035 33.371 91.0068 34.518 88.6141 34.518C87.0848 34.518 85.8515 34.0247 84.9141 33.038C84.0015 32.0267 83.5575 30.3 83.5821 27.858L83.7301 18.719L81.3251 18.201V16.758L87.8001 15.981L88.2441 16.388L88.0591 21.568V27.71C88.0591 29.0913 88.2688 30.0657 88.6881 30.633C89.1321 31.1757 89.7611 31.447 90.5751 31.447C91.2658 31.447 91.9688 31.2497 92.6841 30.855C93.4241 30.4603 94.1271 29.9547 94.7931 29.338L94.9041 18.719L92.5731 18.201V16.832L98.9001 15.981L99.3811 16.388L99.2701 21.568V32.002L101.527 32.483V34L95.2001 34.333ZM106.924 25.231C106.924 27.4757 107.344 29.153 108.182 30.263C109.046 31.3483 110.131 31.891 111.438 31.891C112.08 31.891 112.659 31.7677 113.177 31.521C113.72 31.2497 114.226 30.8673 114.694 30.374V19.755C113.609 18.8177 112.536 18.349 111.475 18.349C110.242 18.349 109.169 18.904 108.256 20.014C107.368 21.124 106.924 22.863 106.924 25.231ZM115.138 34.407L114.842 32.076C114.152 32.8653 113.387 33.4697 112.548 33.889C111.71 34.3083 110.748 34.518 109.662 34.518C108.207 34.518 106.912 34.148 105.777 33.408C104.667 32.668 103.792 31.6073 103.15 30.226C102.509 28.8447 102.188 27.2043 102.188 25.305C102.188 23.3563 102.546 21.6667 103.261 20.236C104.001 18.8053 104.976 17.7077 106.184 16.943C107.418 16.1537 108.762 15.759 110.217 15.759C111.155 15.759 111.993 15.9317 112.733 16.277C113.498 16.6223 114.213 17.1897 114.879 17.979V10.357L111.993 9.987V8.544L118.764 6.879L119.319 7.212L119.171 12.429V32.076L121.576 32.483V34L115.138 34.407ZM121.986 34V32.483L124.428 32.002C124.453 31.0893 124.465 30.1027 124.465 29.042C124.465 27.9567 124.465 27.0193 124.465 26.23V24.491C124.465 23.4797 124.453 22.641 124.428 21.975C124.428 21.2843 124.403 20.569 124.354 19.829L121.727 19.496V18.09L128.387 15.759L128.979 16.129L128.868 21.346V26.23C128.868 27.0193 128.868 27.9567 128.868 29.042C128.868 30.1027 128.88 31.1017 128.905 32.039L131.162 32.483V34H121.986ZM126.648 12.318C125.859 12.318 125.193 12.0713 124.65 11.578C124.107 11.0847 123.836 10.4557 123.836 9.691C123.836 8.90167 124.107 8.26033 124.65 7.767C125.193 7.27367 125.859 7.027 126.648 7.027C127.437 7.027 128.091 7.27367 128.609 7.767C129.152 8.26033 129.423 8.90167 129.423 9.691C129.423 10.4557 129.152 11.0847 128.609 11.578C128.091 12.0713 127.437 12.318 126.648 12.318ZM140.954 34.518C139.276 34.518 137.759 34.148 136.403 33.408C135.071 32.668 134.01 31.595 133.221 30.189C132.431 28.783 132.037 27.1057 132.037 25.157C132.037 23.1837 132.444 21.494 133.258 20.088C134.096 18.682 135.194 17.609 136.551 16.869C137.907 16.129 139.375 15.759 140.954 15.759C142.532 15.759 144 16.129 145.357 16.869C146.713 17.609 147.811 18.682 148.65 20.088C149.488 21.4693 149.908 23.159 149.908 25.157C149.908 27.1303 149.501 28.82 148.687 30.226C147.897 31.6073 146.824 32.668 145.468 33.408C144.136 34.148 142.631 34.518 140.954 34.518ZM140.954 32.705C142.286 32.705 143.297 32.0883 143.988 30.855C144.703 29.6217 145.061 27.7347 145.061 25.194C145.061 20.1127 143.692 17.572 140.954 17.572C138.24 17.572 136.884 20.1127 136.884 25.194C136.884 27.7347 137.229 29.6217 137.92 30.855C138.61 32.0883 139.622 32.705 140.954 32.705Z" fill="#191919"/>
<path d="M152.28 6.266L152.364 3.718H160.302L160.372 6.266H159.406L159.112 4.46H157.264C157.255 5.048 157.245 5.64533 157.236 6.252C157.236 6.84933 157.236 7.45133 157.236 8.058V8.66C157.236 9.248 157.236 9.84067 157.236 10.438C157.245 11.026 157.255 11.614 157.264 12.202L158.58 12.342V13H154.072V12.342L155.388 12.202C155.407 11.6233 155.416 11.04 155.416 10.452C155.416 9.85467 155.416 9.25733 155.416 8.66V8.058C155.416 7.46067 155.416 6.86333 155.416 6.266C155.416 5.65933 155.407 5.05733 155.388 4.46H153.554L153.26 6.266H152.28ZM160.446 13V12.342L161.748 12.16V4.53L160.502 4.376V3.718H163.624L166.354 10.676L168.93 3.718H172.052V4.376L170.904 4.502C170.894 5.08067 170.885 5.66867 170.876 6.266C170.876 6.854 170.876 7.45133 170.876 8.058V8.66C170.876 9.25733 170.876 9.85467 170.876 10.452C170.885 11.04 170.894 11.628 170.904 12.216L172.08 12.342V13H167.95V12.342L169.056 12.202C169.074 11.6233 169.084 11.0493 169.084 10.48C169.084 9.90133 169.084 9.346 169.084 8.814L169.098 5.482L166.326 13H165.43L162.49 5.482L162.56 8.226V12.16L163.722 12.342V13H160.446Z" fill="#191919"/>
</svg>
