<svg width="82" height="82" viewBox="0 0 82 82" fill="none" xmlns="http://www.w3.org/2000/svg">
<path d="M70.0043 70.243C78.0014 62.413 82 52.6646 82 40.9979C82.006 35.6123 80.9496 30.2784 78.8914 25.3016C76.8332 20.3248 73.8135 15.8029 70.0053 11.9947C66.1971 8.18646 61.6752 5.1668 56.6984 3.10859C51.7216 1.05038 46.3877 -0.00596863 41.0021 2.53661e-05C30.0086 2.53661e-05 20.4272 3.99859 12.258 11.9957C8.31653 15.7163 5.19181 20.2158 3.08229 25.2086C0.972767 30.2014 -0.0754452 35.5783 0.00422354 40.9979C0.00422354 52.6696 4.08883 62.418 12.258 70.243C20.4272 78.0681 30.0086 81.9856 41.0021 81.9958C46.3782 82.0877 51.7176 81.0942 56.7008 79.0748C61.6841 77.0554 66.2088 74.0516 70.0043 70.243Z" fill="#191919"/>
<path d="M40.7971 70.6073C43.2064 70.6005 45.5986 70.2031 47.8806 69.4305C50.1684 68.6823 52.3084 67.5416 54.2049 66.0595C56.036 64.632 57.564 62.8536 58.6995 60.8285C59.8453 58.7353 60.4311 56.3816 60.4002 53.9955C60.5068 51.1562 59.7725 48.3486 58.2895 45.925C56.9023 43.8033 55.1308 41.9597 53.0661 40.489C50.9481 38.9769 48.6815 37.6846 46.3015 36.6322C43.8719 35.549 41.6171 34.4254 39.5368 33.2612C37.5959 32.2046 35.8332 30.8493 34.3134 29.245C32.8783 27.6442 32.1239 25.5471 32.2103 23.399C32.1603 22.0497 32.4529 20.7098 33.0607 19.5042C33.5522 18.5609 34.2402 17.7339 35.0784 17.0791C35.9166 16.4242 36.8855 15.9567 37.9197 15.7081C38.8609 15.4726 39.8269 15.3502 40.7971 15.3437C42.57 15.3127 44.3318 15.63 45.9826 16.2775C47.3847 16.8336 48.6717 17.6445 49.7787 18.669C50.7651 19.5906 51.5642 20.6939 52.1323 21.9185C52.6355 23.0023 52.9095 24.1783 52.937 25.373C52.937 25.4032 52.949 25.4321 52.9704 25.4535C52.9917 25.4748 53.0207 25.4868 53.0509 25.4868H54.8047L55.3665 25.0844L58.1832 12.2536C58.1889 12.2311 58.1876 12.2075 58.1795 12.1858C58.1713 12.1641 58.1567 12.1454 58.1377 12.1321L57.219 11.4944C57.1993 11.4796 57.1753 11.4716 57.1507 11.4716C57.1261 11.4716 57.1021 11.4796 57.0824 11.4944C56.3296 12.0299 55.439 12.3382 54.5162 12.3827C53.4685 12.4586 52.5574 12.5042 51.8058 12.5042C51.1959 12.4812 50.5876 12.4255 49.9837 12.3371C49.0878 12.2309 48.078 12.0942 46.9468 11.9348C45.8156 11.7753 44.6691 11.6387 43.424 11.5248C42.1789 11.4109 41.1464 11.3653 40.3036 11.3653C38.1613 11.3716 36.032 11.6992 33.9869 12.3371C31.9288 12.961 29.9944 13.9371 28.27 15.2222C26.5574 16.5063 25.1367 18.1391 24.1019 20.0128C22.9908 22.0668 22.4335 24.3745 22.4847 26.7092C22.3833 29.5827 23.0853 32.4275 24.5118 34.9239C25.8416 37.0879 27.5765 38.9749 29.6214 40.4814C31.6971 42.0096 33.9199 43.327 36.257 44.4142C38.6308 45.5226 40.8452 46.6589 42.9001 47.8231C44.7841 48.8618 46.5035 50.1744 48.0021 51.7179C49.3535 53.1528 50.4392 56.7059 50.3253 58.9229C49.8698 67.7754 41.693 69.5975 40.7971 70.5921" fill="white"/>
<path d="M23.6958 57.7438V60.0427C23.6958 61.2823 25.7907 62.3297 28.2698 62.3297C30.7489 62.3297 32.8438 61.2823 32.8438 60.0427V57.7438C31.8769 58.5909 30.2238 59.1279 28.2698 59.1279C26.3158 59.1279 24.6627 58.5909 23.6958 57.7438ZM28.2698 58.2131C30.7956 58.2131 32.8438 57.1895 32.8438 55.9261C32.8438 54.6628 30.7956 53.6391 28.2698 53.6391C25.744 53.6391 23.6958 54.6628 23.6958 55.9261C23.6958 57.1895 25.744 58.2131 28.2698 58.2131ZM23.6958 61.8348V64.1593C23.6958 65.4629 25.6617 66.4463 28.2698 66.4463C30.8779 66.4463 32.8438 65.4629 32.8438 64.1593V61.8348C31.8686 62.6911 30.201 63.2445 28.2698 63.2445C26.3387 63.2445 24.671 62.6902 23.6958 61.8348Z" fill="#FFB31C"/>
</svg>
