<svg width="200" height="56" viewBox="0 0 200 56" fill="none" xmlns="http://www.w3.org/2000/svg">
<path d="M47.7553 47.9699C53.2107 42.6226 55.9385 35.9653 55.9385 27.998C55.9426 24.3201 55.2219 20.6775 53.8179 17.2788C52.4138 13.8801 50.3539 10.792 47.756 8.19131C45.1581 5.59064 42.0734 3.52848 38.6783 2.1229C35.2833 0.717318 31.6446 -0.00407606 27.9707 1.73228e-05C20.4712 1.73228e-05 13.935 2.73069 8.36214 8.19203C5.67335 10.7329 3.54173 13.8057 2.10266 17.2153C0.663599 20.6249 -0.051467 24.2969 0.0028812 27.998C0.0028812 35.9688 2.7893 42.6261 8.36214 47.9699C13.935 53.3137 20.4712 55.9891 27.9707 55.996C31.6381 56.0588 35.2805 55.3803 38.68 54.0012C42.0794 52.6222 45.1661 50.5708 47.7553 47.9699Z" fill="#191919"/>
<path d="M27.8308 48.2189C29.4744 48.2143 31.1063 47.9429 32.6631 47.4152C34.2237 46.9043 35.6836 46.1253 36.9774 45.1132C38.2265 44.1383 39.2688 42.9238 40.0435 41.5408C40.8251 40.1114 41.2247 38.504 41.2036 36.8745C41.2763 34.9355 40.7754 33.0182 39.7638 31.363C38.8175 29.9141 37.6089 28.6551 36.2005 27.6507C34.7556 26.6181 33.2094 25.7356 31.5858 25.0168C29.9284 24.2771 28.3902 23.5098 26.9711 22.7148C25.647 21.9932 24.4446 21.0676 23.4078 19.972C22.4288 18.8788 21.9142 17.4467 21.9731 15.9797C21.939 15.0583 22.1386 14.1432 22.5532 13.3199C22.8885 12.6757 23.3579 12.111 23.9297 11.6638C24.5015 11.2166 25.1624 10.8973 25.8679 10.7275C26.51 10.5666 27.169 10.4831 27.8308 10.4786C29.0403 10.4575 30.2422 10.6742 31.3683 11.1164C32.3247 11.4961 33.2027 12.0499 33.9579 12.7496C34.6308 13.3789 35.1759 14.1324 35.5634 14.9687C35.9067 15.7088 36.0936 16.512 36.1124 17.3278C36.1124 17.3484 36.1206 17.3682 36.1352 17.3828C36.1497 17.3973 36.1695 17.4055 36.1901 17.4055H37.3865L37.7698 17.1307L39.6913 8.3684C39.6951 8.35305 39.6942 8.33688 39.6887 8.32206C39.6831 8.30723 39.6732 8.29446 39.6602 8.28544L39.0335 7.84992C39.0201 7.83982 39.0037 7.83437 38.9869 7.83437C38.9701 7.83437 38.9537 7.83982 38.9403 7.84992C38.4267 8.21561 37.8192 8.42614 37.1897 8.45654C36.475 8.50839 35.8535 8.5395 35.3407 8.5395C34.9246 8.52385 34.5097 8.48577 34.0977 8.42544C33.4866 8.35285 32.7977 8.25952 32.026 8.15064C31.2543 8.04176 30.4722 7.94843 29.6229 7.87066C28.7735 7.79288 28.0691 7.76178 27.4942 7.76178C26.0328 7.76609 24.5802 7.98979 23.1851 8.42544C21.7811 8.85145 20.4615 9.51808 19.2851 10.3957C18.1168 11.2726 17.1477 12.3877 16.4417 13.6673C15.6838 15.0699 15.3036 16.6459 15.3386 18.2403C15.2694 20.2026 15.7482 22.1454 16.7214 23.8503C17.6286 25.3281 18.8121 26.6167 20.207 27.6455C21.623 28.6892 23.1394 29.5888 24.7337 30.3313C26.353 31.0883 27.8637 31.8642 29.2655 32.6593C30.5507 33.3686 31.7236 34.265 32.7459 35.3191C33.6678 36.299 34.4085 38.7255 34.3308 40.2394C34.02 46.2849 28.442 47.5293 27.8308 48.2085" fill="white"/>
<path d="M22.5014 44.2524C23.2372 43.5453 23.6964 42.5984 23.7962 41.5823C23.8795 40.854 23.7902 40.1162 23.5355 39.4289C23.2809 38.7416 22.8681 38.124 22.3305 37.6262C21.5045 36.8568 20.4133 36.437 19.2851 36.4545C18.692 36.4509 18.1042 36.567 17.557 36.796C17.0097 37.0249 16.5141 37.362 16.0999 37.787C15.6704 38.2084 15.3291 38.7114 15.0962 39.2665C14.8632 39.8216 14.7432 40.4176 14.7432 41.0197C14.7432 41.6218 14.8632 42.2178 15.0962 42.7729C15.3291 43.328 15.6704 43.831 16.0999 44.2524C16.9567 45.0873 18.1051 45.5545 19.3007 45.5545C20.4963 45.5545 21.6447 45.0873 22.5014 44.2524Z" fill="#FFB31C"/>
<path d="M72.1132 31.8711L72.3825 31.6377L73.755 31.5029C73.7998 32.0776 73.9471 32.6395 74.1901 33.1621C74.6612 34.1737 75.4659 34.9922 76.4689 35.4797C76.9539 35.7117 77.4852 35.8304 78.0227 35.8271C78.3162 35.8242 78.6084 35.7859 78.8928 35.713C79.212 35.6307 79.5126 35.4882 79.7784 35.293C80.0723 35.0727 80.3086 34.7845 80.4673 34.4531C80.6587 34.0321 80.7508 33.5726 80.7366 33.1102C80.7427 32.8376 80.6936 32.5665 80.5921 32.3134C80.4906 32.0603 80.3389 31.8305 80.1462 31.6377C79.718 31.2041 79.2275 30.8371 78.6908 30.5489C78.1107 30.2223 77.4737 29.9008 76.7797 29.5742C76.1015 29.2581 75.462 28.8649 74.8737 28.4024C74.2963 27.9486 73.8021 27.3977 73.4132 26.7744C72.9993 26.0516 72.7966 25.227 72.8279 24.3946C72.8178 23.688 72.9966 22.9917 73.3458 22.3777C73.6795 21.7984 74.1377 21.3007 74.6873 20.9207C75.2827 20.5157 75.9457 20.2207 76.645 20.0497C77.4293 19.8546 78.2349 19.7588 79.043 19.7645C79.6936 19.7546 80.3438 19.8049 80.9852 19.9149C81.4594 20.0102 81.9414 20.0606 82.425 20.0652C82.6659 20.0649 82.9065 20.0476 83.1449 20.0134C83.4402 19.9719 83.7281 19.8881 83.9995 19.7645L84.3362 19.9304L83.8648 24.659L83.5334 24.8301H82.5597C82.5613 24.3697 82.4932 23.9116 82.3577 23.4717C82.2281 23.047 82.0248 22.6486 81.7569 22.2947C81.4791 21.9416 81.125 21.6562 80.7211 21.46C80.2356 21.2319 79.7033 21.1218 79.1673 21.1385C78.9321 21.151 78.6992 21.191 78.4733 21.2577C78.2051 21.3302 77.9547 21.4573 77.7378 21.6311C77.4865 21.825 77.2799 22.0708 77.1319 22.3517C76.9205 22.7952 76.8413 23.2903 76.9038 23.7776C76.9663 24.265 77.1677 24.724 77.484 25.0997C77.9244 25.5544 78.4329 25.9375 78.9912 26.2352C79.5816 26.5722 80.229 26.904 80.9334 27.2255C81.6175 27.5393 82.2682 27.9215 82.8756 28.3661C83.4627 28.7901 83.968 29.3171 84.3672 29.9216C84.7499 30.5881 84.9582 31.3406 84.9727 32.1093C84.9872 32.8779 84.8074 33.6378 84.4501 34.3183C84.1015 34.9386 83.629 35.4805 83.0621 35.91C82.4525 36.3711 81.7672 36.722 81.037 36.947C80.2518 37.198 79.4322 37.324 78.6079 37.3203H77.6342C77.1399 37.3055 76.647 37.2604 76.1582 37.1855C75.604 37.1077 75.0032 36.9937 74.3662 36.8381C73.7164 36.6731 73.0834 36.4474 72.4757 36.1641L72.1132 31.8711Z" fill="#191919"/>
<path d="M104.981 36.0966C104.581 36.4669 104.122 36.7682 103.624 36.9884C102.935 37.2518 102.2 37.3718 101.464 37.341C100.836 37.3403 100.214 37.2134 99.6356 36.9677C99.0606 36.7365 98.558 36.3551 98.1802 35.8633L93.5915 29.6415C93.4202 29.4508 93.2076 29.3018 92.9699 29.206C92.6224 29.074 92.254 29.0055 91.8823 29.0038V33.1517C91.8278 33.8247 92.0378 34.4925 92.4676 35.013C92.856 35.4278 93.6018 35.6352 94.6946 35.6352L94.8293 35.8996L94.6946 36.9366H84.7764V35.63C85.8485 35.63 86.5891 35.4226 86.9879 35.0078C87.4282 34.4922 87.6461 33.8228 87.5939 33.1465V14.0975L84.7764 13.4805V12.542L91.613 10.5977L91.8823 10.831V28.0498H92.7524L98.9157 21.828L95.9687 21.3095V20.2H104.11V21.2577L101.666 21.7762L96.2691 26.541V26.7432L102.484 34.3908C102.771 34.737 103.147 34.9972 103.572 35.1426C104.041 35.2346 104.518 35.2746 104.996 35.2619L105.162 35.4952L104.981 36.0966Z" fill="#191919"/>
<path d="M112.687 36.9365L106.524 22.2946L104.007 21.2577V20.1481H113.423V21.2577L111.045 22.2946L114.728 32.0369H114.925L118.415 22.2946L116.038 21.2577V20.1481H123.04V21.2577L120.529 22.2946L112.138 43.0339C111.877 43.7275 111.504 44.3737 111.035 44.9471C110.654 45.3971 110.207 45.7869 109.709 46.1033C109.275 46.3723 108.799 46.5652 108.3 46.6736C107.854 46.7692 107.4 46.8196 106.943 46.824C106.472 46.8613 105.999 46.7999 105.553 46.6436C105.107 46.4874 104.699 46.2398 104.354 45.9166C103.792 45.3328 103.485 44.5496 103.499 43.739C103.479 43.3876 103.541 43.0364 103.68 42.7132C103.82 42.39 104.033 42.1039 104.302 41.8777C104.831 41.4429 105.497 41.2096 106.182 41.2192L106.415 41.4214L107.72 45.0508L107.922 45.2167C108.249 45.2192 108.572 45.1482 108.868 45.0092C109.164 44.8701 109.425 44.6664 109.631 44.413C110.151 43.7877 110.548 43.07 110.802 42.2976L112.687 36.9365Z" fill="#191919"/>
<path d="M120.725 46.627V45.3204C121.067 45.3544 121.412 45.3201 121.74 45.2195C122.068 45.1189 122.373 44.9541 122.636 44.7345C123.063 44.1991 123.268 43.5193 123.206 42.8369V23.4198L120.394 22.8131V21.7088L127.225 19.7645L127.495 19.9978V23.1087H127.629C128.079 21.9895 128.885 21.0507 129.924 20.4385C130.811 19.9866 131.792 19.7521 132.788 19.7541C133.92 19.7152 135.044 19.9631 136.056 20.4748C136.91 20.9325 137.649 21.5798 138.216 22.3673C138.785 23.1716 139.195 24.0782 139.422 25.0374C139.669 26.0295 139.792 27.0482 139.79 28.0706C139.806 29.2999 139.631 30.5242 139.272 31.6999C138.946 32.7733 138.419 33.7746 137.718 34.6501C137.022 35.4919 136.146 36.1669 135.155 36.6255C134.067 37.1238 132.881 37.3718 131.685 37.3514H131.048C130.686 37.3332 130.328 37.2829 129.975 37.201C129.543 37.1016 129.118 36.9681 128.707 36.8018C128.267 36.6255 127.867 36.3628 127.531 36.0292V42.8369C127.525 43.2095 127.57 43.581 127.666 43.9413C127.756 44.2589 127.952 44.5366 128.22 44.7293C128.574 44.9749 128.98 45.1362 129.406 45.2012C130.09 45.3147 130.784 45.3651 131.477 45.3515L131.612 45.6211L131.477 46.6581L120.725 46.627ZM127.495 33.0117C127.688 33.9248 128.207 34.736 128.955 35.293C129.619 35.72 130.393 35.9419 131.182 35.9307C131.823 35.9381 132.45 35.7441 132.974 35.376C133.522 34.9793 133.98 34.4702 134.316 33.8827C134.71 33.1917 134.998 32.4454 135.17 31.6688C135.372 30.7897 135.473 29.8903 135.471 28.9883C135.474 28.1965 135.378 27.4076 135.186 26.6395C135.014 25.9474 134.725 25.2899 134.331 24.6952C133.958 24.1415 133.457 23.6862 132.871 23.3679C132.231 23.035 131.519 22.8675 130.799 22.8805C130.158 22.8805 129.527 23.0315 128.955 23.3213C128.353 23.6308 127.853 24.1079 127.515 24.6952L127.495 33.0117Z" fill="#191919"/>
<path d="M157.146 28.5528C157.155 29.7382 156.963 30.9165 156.576 32.037C156.22 33.0726 155.65 34.0214 154.903 34.8212C154.127 35.6309 153.183 36.2609 152.137 36.667C149.659 37.5657 146.945 37.5657 144.467 36.667C143.421 36.2621 142.477 35.632 141.701 34.8212C140.955 34.02 140.383 33.0718 140.023 32.037C139.263 29.7853 139.263 27.3462 140.023 25.0945C140.385 24.0562 140.956 23.1033 141.701 22.2947C142.474 21.4774 143.419 20.8417 144.467 20.4334C146.946 19.5416 149.658 19.5416 152.137 20.4334C153.185 20.8431 154.129 21.4786 154.903 22.2947C155.648 23.1022 156.218 24.0555 156.576 25.0945C156.961 26.2064 157.154 27.376 157.146 28.5528ZM148.3 35.8945C148.923 35.8965 149.535 35.7231 150.065 35.3941C150.596 35.065 151.023 34.5934 151.298 34.0331C152.023 32.7957 152.386 30.9689 152.386 28.5528C152.386 26.1367 152.023 24.3185 151.298 23.0984C151.027 22.5322 150.602 22.0543 150.072 21.7198C149.541 21.3852 148.927 21.2077 148.3 21.2077C147.672 21.2077 147.058 21.3852 146.528 21.7198C145.997 22.0543 145.572 22.5322 145.301 23.0984C144.576 24.3634 144.213 26.1816 144.213 28.5528C144.213 30.924 144.583 32.7508 145.321 34.0331C145.593 34.5926 146.016 35.064 146.543 35.3933C147.069 35.7226 147.678 35.8963 148.3 35.8945Z" fill="#191919"/>
<path d="M156.845 36.9365V35.63C157.917 35.63 158.653 35.4226 159.057 35.0078C159.492 34.4897 159.708 33.8216 159.658 33.1464V23.4197L156.845 22.8131V21.7087L163.682 19.7644L163.946 19.9977V33.1464C163.894 33.8227 164.112 34.4921 164.552 35.0078C164.951 35.4226 165.712 35.63 166.831 35.63L166.965 35.8944L166.831 36.9314L156.845 36.9365ZM161.703 17.5505C161.33 17.5525 160.96 17.4784 160.616 17.3327C160.27 17.1895 159.956 16.9779 159.694 16.7106C159.427 16.4448 159.211 16.1319 159.057 15.7877C158.9 15.4344 158.818 15.0519 158.818 14.6652C158.818 14.2784 158.9 13.8959 159.057 13.5426C159.208 13.2016 159.425 12.8935 159.694 12.6353C159.964 12.378 160.276 12.1678 160.616 12.0131C160.957 11.8574 161.328 11.7778 161.703 11.7798C162.09 11.777 162.473 11.8565 162.827 12.0131C163.161 12.1667 163.466 12.3772 163.728 12.6353C163.99 12.8969 164.2 13.2045 164.35 13.5426C164.504 13.8968 164.583 14.2789 164.583 14.6652C164.583 15.0514 164.504 15.4335 164.35 15.7877C164.198 16.1292 163.988 16.4415 163.728 16.7106C163.475 16.9785 163.168 17.1904 162.827 17.3327C162.471 17.4795 162.089 17.5535 161.703 17.5505Z" fill="#191919"/>
<path d="M178.121 36.9367V35.6301C179.059 35.6301 179.675 35.4227 180.027 35.0079C180.408 34.465 180.59 33.8081 180.545 33.1466V26.1678C180.586 25.1886 180.349 24.2179 179.862 23.368C179.401 22.6422 178.582 22.2792 177.396 22.2792C177.2 22.2876 177.004 22.3102 176.811 22.3466C176.486 22.4079 176.17 22.5143 175.874 22.6629C175.485 22.8609 175.124 23.1103 174.802 23.4043C174.397 23.7719 174.062 24.2091 173.812 24.6953V33.1466C173.762 33.8192 173.971 34.4856 174.398 35.0079C174.791 35.4227 175.522 35.6301 176.594 35.6301L176.728 35.8945L176.594 36.9315H166.696V35.6249C167.768 35.6249 168.504 35.4175 168.908 35.0027C169.343 34.4846 169.559 33.8166 169.508 33.1414V23.4199L166.696 22.8132V21.7089L173.528 19.7646L173.797 19.9979V23.1866H173.932C175.119 20.9052 176.929 19.7646 179.359 19.7646C181.165 19.7646 182.527 20.2831 183.446 21.32C184.406 22.4817 184.896 23.962 184.818 25.4679V33.1466C184.792 33.4839 184.835 33.823 184.945 34.1431C185.054 34.4632 185.228 34.7575 185.455 35.0079C186.054 35.4795 186.81 35.7023 187.568 35.6301L187.734 35.8945L187.568 36.9315L178.121 36.9367Z" fill="#191919"/>
<path d="M199.527 35.5263C198.885 36.1063 198.14 36.5617 197.331 36.8692C196.47 37.1907 195.557 37.3506 194.638 37.341C194.013 37.3434 193.39 37.2809 192.779 37.1544C192.199 37.0375 191.662 36.7651 191.225 36.3663C190.743 35.8906 190.388 35.3027 190.189 34.6553C189.905 33.7093 189.776 32.7236 189.806 31.7362V22.4036H186.823V21.4651L193.297 16.0729H194.068V20.3348H199.698L199.325 22.1132L198.994 22.3777H194.068V31.1918C194.047 31.8917 194.131 32.5908 194.317 33.2658C194.441 33.7015 194.673 34.0991 194.99 34.422C195.254 34.6729 195.585 34.8422 195.943 34.9093C197.145 35.1127 198.379 34.9614 199.496 34.4738L199.698 34.676L199.527 35.5263Z" fill="#191919"/>
</svg>
