<svg width="57" height="57" viewBox="0 0 57 57" fill="none" xmlns="http://www.w3.org/2000/svg">
<path d="M47.8213 47.9844C53.2843 42.639 56.0158 35.9796 56.0158 28.0065C56.0199 24.3274 55.2983 20.6838 53.8922 17.284C52.4862 13.8843 50.4235 10.7952 47.822 8.19378C45.2206 5.59233 42.1315 3.52954 38.7318 2.12354C35.332 0.717534 31.6883 -0.00407729 28.0093 1.73281e-05C20.4995 1.73281e-05 13.9542 2.73151 8.3737 8.1945C5.68119 10.7361 3.54662 13.8098 2.10557 17.2205C0.664516 20.6312 -0.0515381 24.3042 0.00288518 28.0065C0.00288518 35.9796 2.79316 42.639 8.3737 47.9844C13.9542 53.3298 20.4995 56.006 28.0093 56.0129C31.6818 56.0757 35.3293 55.397 38.7334 54.0175C42.1376 52.638 45.2285 50.5861 47.8213 47.9844Z" fill="white"/>
<path d="M27.8694 48.2384C29.5154 48.2364 31.15 47.9648 32.7083 47.4345C34.2699 46.9232 35.7315 46.1459 37.0285 45.1369C38.2799 44.1603 39.3237 42.9436 40.0988 41.5583C40.8825 40.1288 41.2827 38.5207 41.2606 36.8906C41.3386 34.9423 40.8368 33.0146 39.8188 31.3516C38.8697 29.9033 37.6598 28.6441 36.2506 27.6381C34.8025 26.607 33.2543 25.7244 31.6295 25.0034C29.9698 24.267 28.4295 23.5011 27.0084 22.7059C25.6833 21.9808 24.4794 21.0534 23.4402 19.9571C22.4597 18.8657 21.9442 17.4346 22.0036 15.9688C21.9681 15.0469 22.168 14.1313 22.5844 13.3082C22.9202 12.6638 23.3902 12.0989 23.9628 11.6515C24.5354 11.2042 25.1972 10.8848 25.9037 10.715C26.546 10.55 27.2062 10.4646 27.8694 10.4608C29.0803 10.4417 30.2835 10.6583 31.4117 11.0988C32.3707 11.4785 33.2503 12.0344 34.0049 12.7376C34.6775 13.3662 35.2232 14.118 35.6126 14.9522C35.9564 15.6944 36.1435 16.4995 36.1624 17.3172C36.1624 17.3379 36.1706 17.3576 36.1852 17.3722C36.1998 17.3868 36.2195 17.395 36.2402 17.395H37.4382L37.822 17.115L39.7462 8.35516C39.7509 8.33983 39.7504 8.32338 39.7447 8.30837C39.7391 8.29336 39.7287 8.28063 39.715 8.27218L39.0875 7.83133C39.0735 7.82259 39.0573 7.81797 39.0408 7.81797C39.0243 7.81797 39.0081 7.82259 38.9941 7.83133C38.4793 8.19528 37.871 8.40407 37.2411 8.43295C36.5254 8.49 35.9031 8.51594 35.3896 8.51594C35.1683 8.51594 34.7534 8.47963 34.1449 8.40702C33.5329 8.33441 32.8431 8.24106 32.0703 8.12696C31.2976 8.01286 30.5144 7.92469 29.6638 7.85208C28.8133 7.77947 28.1079 7.74316 27.5323 7.74316C26.0686 7.74494 24.6137 7.96877 23.2172 8.40702C21.8115 8.83138 20.4901 9.49646 19.3118 10.3727C18.1427 11.2507 17.1724 12.3659 16.4645 13.6453C15.7055 15.0483 15.3248 16.6248 15.3598 18.2196C15.2855 20.1874 15.7633 22.1367 16.7394 23.8469C17.6448 25.3273 18.8305 26.6169 20.2298 27.6433C21.6464 28.6907 23.1651 29.5926 24.7627 30.335C26.3843 31.0922 27.897 31.8685 29.3008 32.6637C30.59 33.3698 31.7651 34.2668 32.786 35.3243C33.7092 36.3046 34.4509 38.7318 34.3731 40.2462C34.0619 46.2883 28.4762 47.5331 27.8642 48.2125" fill="#191919"/>
<g clip-path="url(#clip0_1465_271)">
<path d="M16.1866 39.445V41.0156C16.1866 41.8625 17.6178 42.5781 19.3116 42.5781C21.0053 42.5781 22.4366 41.8625 22.4366 41.0156V39.445C21.776 40.0238 20.6466 40.3906 19.3116 40.3906C17.9766 40.3906 16.8472 40.0238 16.1866 39.445ZM19.3116 39.7656C21.0372 39.7656 22.4366 39.0663 22.4366 38.2031C22.4366 37.34 21.0372 36.6406 19.3116 36.6406C17.586 36.6406 16.1866 37.34 16.1866 38.2031C16.1866 39.0663 17.586 39.7656 19.3116 39.7656ZM16.1866 42.24V43.8281C16.1866 44.7188 17.5297 45.3906 19.3116 45.3906C21.0935 45.3906 22.4366 44.7188 22.4366 43.8281V42.24C21.7703 42.825 20.631 43.2031 19.3116 43.2031C17.9922 43.2031 16.8528 42.8244 16.1866 42.24Z" fill="#FFB31C"/>
</g>
<defs>
<clipPath id="clip0_1465_271">
<rect width="10" height="10" fill="white" transform="translate(14.3116 36.0156)"/>
</clipPath>
</defs>
</svg>
